# AST/ASF file generated using VICON BodyLanguage
# -----------------------------------------------
:version 1.10
:name VICON
:units
  mass 1.0
  length 0.45
  angle deg
:documentation
   .ast/.asf automatically generated from VICON data using
   VICON BodyBuilder and BodyLanguage model FoxedUp or BRILLIANT.MOD
:root
   order TX TY TZ RX RY RZ
   axis XYZ
   position 0 0 0  
   orientation 0 0 0 
:bonedata
  begin
     id 1 
     name lhipjoint
     direction 0.722297 -0.617336 0.311742 
     length 2.6635 
     axis 0 0 0  XYZ
  end
  begin
     id 2 
     name lfemur
     direction 0.34202 -0.939693 0  
     length 7.39349  
     axis 0 0 20  XYZ
    dof rx ry rz
    limits (-160.0 20.0)
           (-70.0 70.0)
           (-60.0 70.0)
  end
  begin
     id 3 
     name ltibia
     direction 0.34202 -0.939693 0   
     length 7.36294   
     axis 0 0 20   XYZ
    dof rx
    limits (-10.0 170.0)
  end
  begin
     id 4 
     name lfoot
     direction 0.104879 -0.288152 0.951824   
     length 2.16981   
     axis -90 7.62852e-016 20   XYZ
    dof rx rz
    limits (-45.0 90.0)
           (-70.0 20.0)
  end
  begin
     id 5 
     name ltoes
     direction 1.53586e-011 -4.21895e-011 1   
     length 1.08218   
     axis -90 7.62852e-016 20   XYZ
    dof rx
    limits (-90.0 20.0)
  end
  begin
     id 6 
     name rhipjoint
     direction -0.75102 -0.589393 0.297631   
     length 2.78977  
     axis 0 0 0  XYZ 
  end
  begin
     id 7 
     name rfemur
     direction -0.34202 -0.939693 0   
     length 7.46076   
     axis 0 0 -20   XYZ
    dof rx ry rz
    limits (-160.0 20.0)
           (-70.0 70.0)
           (-70.0 60.0)
  end
  begin
     id 8 
     name rtibia
     direction -0.34202 -0.939693 0   
     length 7.31726   
     axis 0 0 -20   XYZ
    dof rx
    limits (-10.0 170.0)
 end
 begin
     id 9 
     name rfoot
     direction -0.107991 -0.296704 0.948844   
     length 2.09388  
     axis -90 -7.62852e-016 -20   XYZ
    dof rx rz
    limits (-45.0 90.0)
           (-20.0 70.0)
  end
  begin
     id 10 
     name rtoes
     direction -1.53559e-011 -4.21911e-011 1   
     length 1.04433   
     axis -90 -7.62852e-016 -20   XYZ
    dof rx
    limits (-90.0 20.0)
  end
  begin
     id 11 
     name lowerback
     direction 0.0165164 0.98272 0.184358   
     length 1.71896   
     axis 0 0 0   XYZ
    dof rx ry rz
    limits (-20.0 45.0)
           (-30.0 30.0)
           (-30.0 30.0)
  end
  begin
     id 12 
     name upperback
     direction -0.00887249 0.992297 0.123566   
     length 1.71504   
     axis 0 0 0   XYZ
    dof rx ry rz
    limits (-20.0 45.0)
           (-30.0 30.0)
           (-30.0 30.0)
  end
  begin
     id 13 
     name thorax
     direction -0.0157026 0.998908 0.0440032   
     length 1.77022   
     axis 0 0 0   XYZ
    dof rx ry rz
    limits (-20.0 45.0)
           (-30.0 30.0)
           (-30.0 30.0)
  end
  begin
     id 14 
     name lowerneck
     direction -0.0238856 0.998137 0.0561411   
     length 1.89341   
     axis 0 0 0   XYZ
    dof rx ry rz
    limits (-20.0 45.0)
           (-30.0 30.0)
           (-30.0 30.0)
  end
  begin
     id 15 
     name upperneck
     direction 0.0276574 0.952253 -0.304056   
     length 1.86999   
     axis 0 0 0   XYZ
    dof rx ry rz
    limits (-20.0 45.0)
           (-30.0 30.0)
           (-30.0 30.0)
  end
  begin
     id 16
     name head
     direction 0.00800083 0.994258 -0.106712  
     length 1.91492  
     axis 0 0 0   XYZ
    dof rx ry rz
    limits (-20.0 45.0)
           (-30.0 30.0)
           (-30.0 30.0)
  end
  begin
     id 17 
     name lclavicle
     direction 0.97203 0.225407 0.06595  
     length 3.34889  
     axis 0 0 0   XYZ
    dof ry rz
    limits (-20.0 10.0)
           (0.0 20.0)
  end
  begin
     id 18 
     name lhumerus
     direction 1 -4.48973e-011 2.20267e-027   
     length 4.85645   
     axis 180 -30 -90   XYZ
    dof rx ry rz
    limits (-60.0 90.0)
           (-90.0 90.0)
           (-90.0 90.0)
  end
  begin
     id 19
     name lradius
     direction 1 -4.4897e-011 4.60472e-027   
     length 2.79874   
     axis 180 -30 -90   XYZ
    dof rx
    limits (-10.0 170.0)
  end
  begin
     id 20
     name lwrist
     direction 1 -4.48952e-011 1.14928e-026   
     length 1.39937   
     axis -6.29373e-015 90 90   XYZ
    dof ry
    limits (-180.0 0.0)
 end
  begin
     id 21 
     name lhand
     direction 1 -4.48967e-011 2.29886e-026   
     length 0.573398   
     axis -1.46689e-014 90 90   XYZ
    dof rx rz
    limits (-90.0 90.0)
           (-45.0 45.0)
  end
  begin
     id 22 
     name lfingers
     direction 1 -4.48955e-011 4.59726e-026   
     length 0.462289   
     axis -2.93383e-014 90 90   XYZ
    dof rx
    limits (0.0 90.0)
  end
  begin
     id 23
     name lthumb
     direction 0.707107 -6.34866e-011 0.707107   
     length 0.663757   
     axis -90 45 5.69224e-014   XYZ
    dof rx rz
    limits (-45.0 45.0)
           (-45.0 45.0)
  end
  begin
     id 24 
     name rclavicle
     direction -0.981571 0.157346 0.108443   
     length 3.35257  
     axis 0 0 0   XYZ 
    dof ry rz
    limits (-10.0 20.0)
           (-20.0 0.0)
  end
  begin
     id 25 
     name rhumerus
     direction -1 -4.48967e-011 8.58308e-029  
     length 4.67018   
     axis 180 30 90   XYZ
    dof rx ry rz
    limits (-90.0 60.0)
           (-90.0 90.0)
           (-90.0 90.0)
  end
  begin
     id 26 
     name rradius
     direction -1 -4.48958e-011 4.52548e-027   
     length 2.65534   
     axis 180 30 90   XYZ
    dof rx
    limits (-10.0 170.0)
  end
  begin
     id 27 
     name rwrist
     direction -1 -4.48977e-011 1.14952e-026   
     length 1.32767   
     axis -6.29373e-015 -90 -90   XYZ
    dof ry
    limits (-180.0 0.0)
  end
  begin
     id 28
     name rhand
     direction -1 -4.48924e-011 2.29804e-026   
     length 0.594069   
     axis -1.46689e-014 -90 -90   XYZ
    dof rx rz
    limits (-90.0 90.0)
           (-45.0 45.0)
  end
  begin
     id 29
     name rfingers
     direction -1 -4.48998e-011 4.59888e-026   
     length 0.478954   
     axis -2.93383e-014 -90 -90   XYZ
    dof rx
    limits (0.0 90.0)
  end
  begin
     id 30
     name rthumb
     direction -0.707107 -6.34933e-011 0.707107   
     length 0.687685   
     axis -90 -45 -5.69224e-014   XYZ
    dof rx rz
    limits (-45.0 45.0)
           (-45.0 45.0)
  end
:hierarchy
  begin
    root lhipjoint rhipjoint lowerback
    lhipjoint lfemur
    lfemur ltibia
    ltibia lfoot
    lfoot ltoes
    rhipjoint rfemur
    rfemur rtibia
    rtibia rfoot
    rfoot rtoes
    lowerback upperback
    upperback thorax
    thorax lowerneck lclavicle rclavicle
    lowerneck upperneck
    upperneck head
    lclavicle lhumerus
    lhumerus lradius
    lradius lwrist
    lwrist lhand lthumb
    lhand lfingers
    rclavicle rhumerus
    rhumerus rradius
    rradius rwrist
    rwrist rhand rthumb
    rhand rfingers
  end

#!OML:ASF E:\pregnant2\Project 1\Capture day 1\Session 1\pregnant2.ASF
:FULLY-SPECIFIED
:DEGREES
1068
root 6.58355 17.1013 -30.2944 -153.915 8.64732 180.244
lowerback -13.9613 -1.97579 -0.578343
upperback -13.1395 -0.170712 1.50435
thorax -6.16519 1.0619 1.79072
lowerneck -12.0055 -5.58406 -3.16351
upperneck 45.2141 0.338971 -2.62828
head 19.6024 1.46785 0.130623
rclavicle 3.63527e-014 1.49089e-014
rhumerus -55.7559 3.40999 -73.8887
rradius 40.9931
rwrist 4.34024
rhand -11.248 -13.7975
rfingers 7.12502
rthumb 14.7816 -43.2503
lclavicle 3.63527e-014 1.49089e-014
lhumerus -53.3605 6.75529 79.4055
lradius 37.0211
lwrist -5.50514
lhand -7.69346 26.6297
lfingers 7.12502
lthumb 18.2038 55.7979
rfemur -45.9697 6.79013 28.2792
rtibia 34.5789
rfoot -7.53175 -17.1969
rtoes -15.7141
lfemur -58.8213 6.78592 -25.869
ltibia 98.0031
lfoot -5.68723 0.0822637
ltoes -23.6698
1069
root 6.59777 17.1092 -30.3539 -154.014 9.05386 180.289
lowerback -13.869 -1.93479 -0.653308
upperback -13.1481 -0.120076 1.52395
thorax -6.22562 1.08963 1.85748
lowerneck -11.8235 -5.67473 -3.54073
upperneck 44.8264 -0.0435383 -2.335
head 19.2925 1.24156 0.250715
rclavicle 1.18277e-014 -1.19271e-014
rhumerus -55.9949 3.59503 -74.2209
rradius 41.3696
rwrist 4.21511
rhand -11.3915 -13.3975
rfingers 7.12502
rthumb 14.6433 -42.8605
lclavicle 1.18277e-014 -1.19271e-014
lhumerus -53.326 6.29645 79.8515
lradius 37.2975
lwrist -5.97457
lhand -8.12255 26.0544
lfingers 7.12502
lthumb 17.7909 55.2606
rfemur -45.6129 7.20733 28.173
rtibia 34.4901
rfoot -7.18961 -17.2508
rtoes -16.8226
lfemur -59.0411 6.70262 -25.7631
ltibia 98.5258
lfoot -6.23384 1.10894
ltoes -22.8008
1070
root 6.60969 17.1149 -30.4039 -154.02 9.3763 180.343
lowerback -13.9169 -1.91278 -0.669271
upperback -13.1175 -0.102408 1.5309
thorax -6.16612 1.09373 1.87661
lowerneck -12.084 -5.79246 -3.65454
upperneck 44.7416 -0.353603 -2.26642
head 19.3122 1.06906 0.231886
rclavicle 2.95692e-015 -3.49861e-014
rhumerus -56.1692 3.81019 -74.6421
rradius 41.9199
rwrist 4.04621
rhand -11.3308 -13.4598
rfingers 7.12502
rthumb 14.7018 -42.9185
lclavicle 2.95692e-015 -3.49861e-014
lhumerus -53.1901 6.00702 80.1598
lradius 37.5908
lwrist -6.3564
lhand -8.37798 25.8463
lfingers 7.12502
lthumb 17.5451 55.0746
rfemur -45.3834 7.60817 28.0676
rtibia 34.405
rfoot -6.96963 -17.2821
rtoes -17.3598
lfemur -59.4209 6.42865 -25.5446
ltibia 98.9674
lfoot -6.71007 1.89157
ltoes -20.9584
1071
root 6.61857 17.1257 -30.4548 -154.159 9.71972 180.303
lowerback -12.6857 -2.07885 -0.864473
upperback -13.9551 -0.136311 1.67011
thorax -7.78309 1.19072 2.10509
lowerneck -10.682 -5.89716 -4.13344
upperneck 44.7655 -0.262484 -2.2062
head 18.9498 1.11905 0.393873
rclavicle -7.15625e-015 -2.74323e-014
rhumerus -57.7041 4.63262 -75.1044
rradius 42.4271
rwrist 3.80426
rhand -11.1606 -13.4812
rfingers 7.12502
rthumb 14.8658 -42.9279
lclavicle -7.15625e-015 -2.74323e-014
lhumerus -54.6764 5.59468 80.4456
lradius 38.107
lwrist -6.40548
lhand -8.5648 26.0383
lfingers 7.12502
lthumb 17.3653 55.2826
rfemur -45.0045 7.9347 27.8575
rtibia 34.3161
rfoot -6.93742 -17.2474
rtoes -17.5416
lfemur -59.6271 6.05453 -25.4461
ltibia 99.2254
lfoot -6.77178 2.59757
ltoes -21.2577
1072
root 6.62835 17.1349 -30.5175 -154.044 10.0792 180.338
lowerback -13.8977 -1.91258 -0.679419
upperback -13.2633 -0.0768884 1.49669
thorax -6.34156 1.11819 1.84516
lowerneck -11.681 -6.0785 -4.45069
upperneck 44.2237 -1.11707 -1.71786
head 18.8894 0.636914 0.472333
rclavicle 2.76062e-014 9.54166e-015
rhumerus -56.7633 4.49437 -75.6076
rradius 42.5565
rwrist 3.75266
rhand -11.4033 -12.9197
rfingers 7.12502
rthumb 14.632 -42.3835
lclavicle 2.76062e-014 9.54166e-015
lhumerus -53.3715 5.41895 80.6157
lradius 38.3542
lwrist -6.68682
lhand -8.43408 25.9153
lfingers 7.12502
lthumb 17.4911 55.1484
rfemur -44.8043 8.19143 27.774
rtibia 34.2314
rfoot -7.18318 -17.1442
rtoes -17.1328
lfemur -60.0612 5.65866 -25.2359
ltibia 99.4368
lfoot -7.20909 3.3561
ltoes -21.4342
1073
root 6.63627 17.1442 -30.5755 -154.101 10.5088 180.286
lowerback -14.4257 -1.79792 -0.641758
upperback -12.8876 -0.020215 1.34408
thorax -5.63873 1.09106 1.68045
lowerneck -11.7839 -6.20778 -4.81821
upperneck 43.5832 -1.69319 -1.39245
head 18.531 0.291877 0.549019
rclavicle 2.30839e-014 3.12092e-014
rhumerus -56.3201 4.47361 -76.0659
rradius 42.7037
rwrist 3.78303
rhand -11.2214 -12.889
rfingers 7.12502
rthumb 14.8072 -42.34
lclavicle 2.30839e-014 3.12092e-014
lhumerus -52.6625 5.00868 80.9185
lradius 38.5789
lwrist -6.31878
lhand -9.0936 26.0275
lfingers 7.12502
lthumb 16.8563 55.3159
rfemur -44.4524 8.40847 27.6105
rtibia 34.1815
rfoot -7.7695 -17.0084
rtoes -15.7755
lfemur -60.2495 5.22325 -25.0971
ltibia 99.4785
lfoot -7.22845 3.60282
ltoes -21.1
1074
root 6.64493 17.1472 -30.6217 -154.039 10.8778 180.169
lowerback -14.0379 -1.87867 -0.841279
upperback -13.2524 -0.0361077 1.36203
thorax -6.25322 1.1376 1.79842
lowerneck -11.5843 -6.51431 -5.36234
upperneck 43.3967 -2.22826 -1.20673
head 18.3983 -0.0149638 0.62602
rclavicle -2.22887e-014 4.37326e-015
rhumerus -57.0174 4.92803 -76.4842
rradius 43.1147
rwrist 3.71941
rhand -11.0767 -12.7467
rfingers 7.12502
rthumb 14.9466 -42.1874
lclavicle -2.22887e-014 4.37326e-015
lhumerus -53.1 4.9259 81.0018
lradius 38.9744
lwrist -6.13927
lhand -9.44306 26.3517
lfingers 7.12502
lthumb 16.5199 55.6685
rfemur -44.3178 8.58034 27.4071
rtibia 34.1391
rfoot -8.20602 -16.9267
rtoes -14.7796
lfemur -60.6805 4.7032 -25.0227
ltibia 99.4498
lfoot -7.03205 3.77849
ltoes -21.6173
1075
root 6.65568 17.1448 -30.6678 -153.886 11.3413 180.002
lowerback -13.92 -1.95559 -1.07807
upperback -13.5695 -0.0451915 1.31005
thorax -6.67221 1.18767 1.86628
lowerneck -11.1294 -6.75645 -5.80914
upperneck 43.0836 -2.69444 -1.05429
head 18.1183 -0.281704 0.685033
rclavicle 1.10822e-014 5.36719e-015
rhumerus -57.5809 5.26566 -76.9805
rradius 43.3971
rwrist 3.65338
rhand -10.8233 -12.7027
rfingers 7.12502
rthumb 15.1907 -42.1251
lclavicle 1.10822e-014 5.36719e-015
lhumerus -53.5376 4.776 80.9292
lradius 39.4092
lwrist -5.9583
lhand -9.4788 26.4081
lfingers 7.12502
lthumb 16.4855 55.7277
rfemur -44.3467 8.82969 27.1198
rtibia 34.147
rfoot -8.55174 -16.8757
rtoes -13.8489
lfemur -61.2003 4.18701 -25.002
ltibia 99.3206
lfoot -7.06136 3.87904
ltoes -21.6399
1076
root 6.66254 17.1501 -30.7216 -153.919 11.8498 179.917
lowerback -14.2248 -1.87088 -1.11731
upperback -13.4057 0.0285824 1.18723
thorax -6.32527 1.19954 1.77116
lowerneck -11.3516 -7.14237 -6.66359
upperneck 42.761 -3.53656 -0.437315
head 18.07 -0.75073 0.942444
rclavicle 4.47266e-015 -9.34288e-015
rhumerus -57.4598 5.34177 -77.3543
rradius 43.4534
rwrist 3.88039
rhand -10.7133 -12.3255
rfingers 7.12502
rthumb 15.2967 -41.7398
lclavicle 4.47266e-015 -9.34288e-015
lhumerus -53.2553 4.55865 81.0215
lradius 39.7902
lwrist -5.33314
lhand -9.87818 26.5964
lfingers 7.12502
lthumb 16.101 55.9475
rfemur -44.0872 8.97672 26.9685
rtibia 34.1645
rfoot -9.13868 -16.6989
rtoes -12.3295
lfemur -61.4168 3.70203 -24.8502
ltibia 99.065
lfoot -7.16507 3.75369
ltoes -22.0757
1077
root 6.66766 17.1494 -30.7728 -153.887 12.3321 179.853
lowerback -13.9848 -1.86767 -1.15011
upperback -13.5911 0.0583926 1.11908
thorax -6.66464 1.22939 1.71287
lowerneck -11.2816 -7.46115 -7.19876
upperneck 42.4242 -4.16056 -0.227792
head 17.913 -1.11343 1.00014
rclavicle -4.24902e-015 3.97569e-015
rhumerus -57.7904 5.61065 -77.8043
rradius 43.6307
rwrist 3.97535
rhand -10.4607 -12.2889
rfingers 7.12502
rthumb 15.54 -41.6845
lclavicle -4.24902e-015 3.97569e-015
lhumerus -53.4955 4.4776 80.9924
lradius 40.2667
lwrist -4.5437
lhand -10.4758 27
lfingers 7.12502
lthumb 15.5254 56.3967
rfemur -43.9507 9.11113 26.844
rtibia 34.2311
rfoot -9.65145 -16.5197
rtoes -11.3314
lfemur -61.6566 3.20071 -24.725
ltibia 98.6959
lfoot -7.38622 3.85636
ltoes -22.6568
